<svg width="9473" height="1883" viewBox="0 0 9473 1883" fill="none" xmlns="http://www.w3.org/2000/svg">
<g clip-path="url(#clip0_8_279)">
<path d="M1058.84 1882.03L789.979 1613.17L924.408 1478.74L1058.84 1613.17L1731 941.017L1058.84 268.862L924.408 403.292L789.979 268.862L1058.84 0L1999.85 941.017L1058.84 1882.03Z" fill="#003AAB"/>
<path d="M537.424 941.017L806.286 672.155L268.562 134.431L402.994 0L1075.15 672.155L806.286 941.017L1075.15 1209.88L402.994 1882.03L268.562 1747.6L806.286 1209.88L537.424 941.017Z" fill="#180C4B"/>
<path d="M0 941.717L537.725 403.992L672.155 538.422L268.862 941.717L672.155 1345.01L537.725 1479.44L0 941.717Z" fill="#180C4B"/>
</g>
<g clip-path="url(#clip1_8_279)">
<path d="M2383.13 1265.47V1154.29H2476.7V728.294H2383.13V617.115H2672.64C2757.76 617.115 2822.71 632.159 2867.47 662.247C2912.24 692.335 2934.62 735.265 2934.62 791.038C2934.62 823.328 2926.91 851.948 2911.5 876.898C2896.83 901.115 2875.55 920.562 2847.66 935.239C2880.68 944.779 2906.73 962.759 2925.81 989.178C2944.89 1014.86 2954.43 1047.52 2954.43 1087.15C2954.43 1142.92 2935.72 1186.58 2898.29 1218.14C2861.6 1249.69 2806.93 1265.47 2734.28 1265.47H2383.13ZM2604.39 1154.29H2714.46C2749.69 1154.29 2776.48 1147.32 2794.82 1133.38C2813.17 1119.44 2822.34 1098.52 2822.34 1070.63C2822.34 1044.22 2813.53 1024.4 2795.92 1011.19C2779.04 997.25 2754.09 990.278 2721.07 990.278H2604.39V1154.29ZM2604.39 891.208H2722.17C2748.59 891.208 2768.4 884.237 2781.61 870.294C2794.82 855.616 2801.43 835.436 2801.43 809.751C2801.43 755.446 2762.53 728.294 2684.74 728.294H2604.39V891.208Z" fill="#180C4B"/>
<path d="M3074.17 617.115H3419.81V728.294H3306.43L3305.33 1154.29H3480.35L3519.98 1044.22L3625.66 1080.54L3560.71 1265.47H3074.17V1154.29H3179.84V728.294H3074.17V617.115Z" fill="#180C4B"/>
<path d="M4037.19 595.101C4101.03 595.101 4157.17 608.677 4205.6 635.829C4254.04 662.982 4291.84 702.243 4318.98 753.612C4346.13 804.982 4359.71 867.359 4359.71 940.744C4359.71 1014.13 4346.13 1076.87 4318.98 1128.98C4291.84 1180.35 4254.04 1219.61 4205.6 1246.76C4157.9 1273.91 4102.13 1287.49 4038.29 1287.49C3975.17 1287.49 3919.4 1273.91 3870.97 1246.76C3823.27 1219.61 3785.84 1180.35 3758.69 1128.98C3731.54 1076.87 3717.96 1014.13 3717.96 940.744C3717.96 867.359 3731.17 804.982 3757.59 753.612C3784.74 702.243 3822.16 662.982 3869.87 635.829C3918.3 608.677 3974.07 595.101 4037.19 595.101ZM4038.29 702.977C3976.64 702.977 3929.68 723.158 3897.39 763.519C3865.84 803.881 3850.05 862.956 3850.05 940.744C3850.05 1018.53 3865.84 1077.97 3897.39 1119.07C3929.68 1159.43 3976.64 1179.61 4038.29 1179.61C4099.93 1179.61 4146.89 1159.43 4179.19 1119.07C4211.48 1077.97 4227.62 1018.53 4227.62 940.744C4227.62 862.956 4211.48 803.881 4179.19 763.519C4147.63 723.158 4100.66 702.977 4038.29 702.977Z" fill="#180C4B"/>
<path d="M5066.37 1201.63C5042.9 1217.77 5019.41 1232.45 4995.92 1245.66C4973.18 1258.87 4947.86 1269.14 4919.97 1276.48C4892.09 1283.82 4859.07 1287.49 4820.9 1287.49C4756.32 1287.49 4699.08 1273.55 4649.18 1245.66C4600.01 1217.77 4561.12 1178.14 4532.5 1126.78C4504.62 1074.67 4490.67 1013.03 4490.67 941.845C4490.67 872.129 4503.88 811.586 4530.29 760.217C4557.45 708.113 4595.98 667.752 4645.88 639.131C4695.78 610.511 4755.22 596.201 4824.2 596.201C4868.23 596.201 4908.6 602.072 4945.29 613.814C4981.98 624.821 5013.91 640.599 5041.05 661.147L5074.08 808.651L4969.5 833.969L4944.19 728.294C4926.57 718.02 4908.23 711.049 4889.15 707.38C4870.8 702.976 4850.26 700.775 4827.5 700.775C4792.28 700.775 4758.9 710.682 4727.33 730.496C4696.51 749.576 4671.56 777.096 4652.48 813.054C4633.41 849.012 4623.86 891.943 4623.86 941.845C4623.86 991.747 4632.31 1034.31 4649.18 1069.53C4666.06 1104.76 4689.18 1131.91 4718.53 1150.99C4747.89 1169.34 4781.27 1178.51 4818.7 1178.51C4845.12 1178.51 4867.87 1175.94 4886.95 1170.81C4906.03 1164.94 4925.47 1157.23 4945.29 1147.69V1033.21H4804.39V931.938H5066.37V1201.63Z" fill="#180C4B"/>
<path d="M5518.77 617.115C5627.38 617.115 5712.14 646.836 5773.05 706.278C5833.95 765.72 5864.41 847.911 5864.41 952.852C5864.41 1051.19 5834.69 1127.88 5775.25 1182.91C5715.81 1237.95 5633.25 1265.47 5527.58 1265.47H5217.16V1154.29H5310.72V728.294H5217.16V617.115H5518.77ZM5507.76 1154.29C5581.15 1154.29 5636.55 1137.42 5673.98 1103.66C5712.14 1069.9 5731.22 1020 5731.22 953.953C5731.22 879.833 5713.24 823.694 5677.28 785.534C5641.32 747.374 5588.48 728.294 5518.77 728.294H5438.41V1154.29H5507.76Z" fill="#003AAB"/>
<path d="M5988.84 617.115H6488.6L6553.54 811.953L6448.97 847.177L6407.14 728.294H6210.1V880.201H6397.23V990.278H6210.1V1154.29H6434.66L6475.39 1044.22L6578.86 1080.54L6515.01 1265.47H5987.74V1154.29H6081.31L6082.41 728.294H5988.84V617.115Z" fill="#003AAB"/>
<path d="M6697.05 617.115H6979.95V728.294H6917.21V889.007H6998.67L7117.55 728.294H7062.51V617.115H7348.71V728.294H7246.34L7094.43 920.929L7265.05 1154.29H7375.13V1265.47H7050.4V1154.29H7127.46L7012.98 995.782H6917.21V1154.29H6979.95V1265.47H6697.05V1154.29H6790.62V728.294H6697.05V617.115Z" fill="#003AAB"/>
<path d="M7765.42 595.101C7829.26 595.101 7885.4 608.677 7933.84 635.829C7982.27 662.982 8020.07 702.243 8047.22 753.612C8074.37 804.982 8087.94 867.359 8087.94 940.744C8087.94 1014.13 8074.37 1076.87 8047.22 1128.98C8020.07 1180.35 7982.27 1219.61 7933.84 1246.76C7886.14 1273.91 7830.36 1287.49 7766.52 1287.49C7703.41 1287.49 7647.63 1273.91 7599.2 1246.76C7551.51 1219.61 7514.08 1180.35 7486.92 1128.98C7459.77 1076.87 7446.19 1014.13 7446.19 940.744C7446.19 867.359 7459.4 804.982 7485.82 753.612C7512.98 702.243 7550.4 662.982 7598.1 635.829C7646.53 608.677 7702.31 595.101 7765.42 595.101ZM7766.52 702.977C7704.87 702.977 7657.91 723.158 7625.62 763.519C7594.07 803.881 7578.28 862.956 7578.28 940.744C7578.28 1018.53 7594.07 1077.97 7625.62 1119.07C7657.91 1159.43 7704.87 1179.61 7766.52 1179.61C7828.16 1179.61 7875.13 1159.43 7907.42 1119.07C7939.71 1077.97 7955.85 1018.53 7955.85 940.744C7955.85 862.956 7939.71 803.881 7907.42 763.519C7875.86 723.158 7828.9 702.977 7766.52 702.977Z" fill="#003AAB"/>
<path d="M8218.91 617.115H8718.66L8785.81 818.557L8681.23 853.782L8638.3 728.294H8439.06V883.503H8608.58V994.681H8437.96V1154.29H8577.76V1265.47H8217.8V1154.29H8312.47L8313.57 728.294H8218.91V617.115Z" fill="#003AAB"/>
<path d="M8885.99 617.115H9472.7V837.27H9359.32V728.294H9243.74L9242.64 1154.29H9336.2V1265.47H9020.28V1154.29H9113.85L9114.95 728.294H8999.37V837.27H8885.99V617.115Z" fill="#003AAB"/>
</g>
<defs>
<clipPath id="clip0_8_279">
<rect width="2000" height="1882.13" fill="white"/>
</clipPath>
<clipPath id="clip1_8_279">
<rect width="7090" height="692.488" fill="white" transform="translate(2383 595)"/>
</clipPath>
</defs>
</svg>
