<svg width="6312" height="5940" viewBox="0 0 6312 5940" fill="none" xmlns="http://www.w3.org/2000/svg">
<path d="M3341.7 5939.7L2493.17 5091.17L2917.43 4666.9L3341.7 5091.17L5463.02 2969.85L3341.7 848.528L2917.43 1272.79L2493.17 848.528L3341.7 0L6311.54 2969.85L3341.7 5939.7Z" fill="#003AAB"/>
<path d="M1696.11 2969.85L2544.64 2121.32L847.584 424.264L1271.85 0.000244141L3393.17 2121.32L2544.64 2969.85L3393.17 3818.38L1271.85 5939.7L847.584 5515.43L2544.64 3818.38L1696.11 2969.85Z" fill="#180C4B"/>
<path d="M0 2972.06L1697.06 1275L2121.32 1699.26L848.528 2972.06L2121.32 4244.85L1697.06 4669.11L0 2972.06Z" fill="#180C4B"/>
</svg>
